<?xml version="1.0" encoding="UTF-8"?>
<svg id="Layer_2" data-name="Layer 2" xmlns="http://www.w3.org/2000/svg" xmlns:xlink="http://www.w3.org/1999/xlink" viewBox="0 0 583.24 325.42">
  <defs>
    <style>
      .cls-1 {
        letter-spacing: .99em;
      }

      .cls-2, .cls-3, .cls-4, .cls-5, .cls-6, .cls-7, .cls-8, .cls-9, .cls-10, .cls-11, .cls-12, .cls-13, .cls-14, .cls-15, .cls-16, .cls-17, .cls-18, .cls-19, .cls-20, .cls-21, .cls-22, .cls-23, .cls-24, .cls-25 {
        stroke-miterlimit: 10;
      }

      .cls-2, .cls-3, .cls-7, .cls-8, .cls-9, .cls-11, .cls-12, .cls-13, .cls-15, .cls-16, .cls-17, .cls-18, .cls-19, .cls-21, .cls-22, .cls-23, .cls-24 {
        stroke: #231f20;
      }

      .cls-2, .cls-4, .cls-5, .cls-6, .cls-8, .cls-10, .cls-14, .cls-18, .cls-20, .cls-25 {
        fill: none;
      }

      .cls-2, .cls-6, .cls-20 {
        stroke-width: 2px;
      }

      .cls-26 {
        fill: #92278f;
      }

      .cls-27 {
        letter-spacing: 1.27em;
      }

      .cls-28 {
        fill: #00a14b;
      }

      .cls-28, .cls-29, .cls-30, .cls-31, .cls-32, .cls-33, .cls-34 {
        font-family: TimesNewRomanPS-ItalicMT, 'Times New Roman';
        font-style: italic;
      }

      .cls-28, .cls-30, .cls-31, .cls-32, .cls-33 {
        font-size: 15px;
      }

      .cls-35 {
        letter-spacing: 2.53em;
      }

      .cls-3 {
        fill: url(#linear-gradient-3);
      }

      .cls-4 {
        stroke-width: .75px;
      }

      .cls-4, .cls-14 {
        stroke: #000;
        stroke-linecap: square;
      }

      .cls-5 {
        stroke: #7f3f98;
      }

      .cls-6 {
        stroke: #92278f;
      }

      .cls-36, .cls-30, .cls-32 {
        fill: #231f20;
      }

      .cls-37 {
        letter-spacing: .78em;
      }

      .cls-38, .cls-22 {
        fill: #7f3f98;
      }

      .cls-29, .cls-39, .cls-40 {
        font-size: 15.02px;
      }

      .cls-7, .cls-41 {
        fill: #39b54a;
      }

      .cls-7, .cls-22 {
        opacity: .19;
        stroke-dasharray: 2;
      }

      .cls-42 {
        letter-spacing: 2.83em;
      }

      .cls-8 {
        stroke-width: 3px;
      }

      .cls-43, .cls-33 {
        fill: #ed1c24;
      }

      .cls-9 {
        fill: url(#linear-gradient-10);
      }

      .cls-44 {
        letter-spacing: 5em;
      }

      .cls-10 {
        stroke: #39b54a;
      }

      .cls-11 {
        fill: url(#linear-gradient-11);
      }

      .cls-12 {
        fill: url(#linear-gradient-8);
      }

      .cls-45 {
        letter-spacing: 1.27em;
      }

      .cls-13 {
        fill: url(#linear-gradient-12);
      }

      .cls-14 {
        stroke-width: .74px;
      }

      .cls-46, .cls-47, .cls-40 {
        font-family: SymbolMT, Symbol;
      }

      .cls-46, .cls-34, .cls-48 {
        font-size: 14.88px;
      }

      .cls-15 {
        fill: url(#linear-gradient-6);
      }

      .cls-47 {
        font-size: 19.65px;
      }

      .cls-49 {
        fill: #009444;
      }

      .cls-39, .cls-50, .cls-48, .cls-51 {
        font-family: TimesNewRomanPSMT, 'Times New Roman';
      }

      .cls-31 {
        fill: #662d91;
      }

      .cls-32 {
        letter-spacing: -.02em;
      }

      .cls-50 {
        font-size: 8.7px;
      }

      .cls-16 {
        fill: url(#linear-gradient-5);
      }

      .cls-17 {
        fill: url(#linear-gradient-9);
      }

      .cls-52 {
        letter-spacing: 2.73em;
      }

      .cls-19 {
        fill: url(#linear-gradient-4);
      }

      .cls-53 {
        letter-spacing: 2.59em;
      }

      .cls-20 {
        stroke: #009444;
      }

      .cls-21 {
        fill: url(#linear-gradient);
      }

      .cls-54 {
        letter-spacing: .22em;
      }

      .cls-55 {
        letter-spacing: 0em;
      }

      .cls-51 {
        font-size: 8.62px;
      }

      .cls-23 {
        fill: url(#linear-gradient-2);
      }

      .cls-24 {
        fill: url(#linear-gradient-7);
      }

      .cls-25 {
        stroke: #ed1c24;
      }
    </style>
    <linearGradient id="linear-gradient" x1="1.11" y1="90.32" x2="19.11" y2="90.32" gradientUnits="userSpaceOnUse">
      <stop offset=".1" stop-color="#fff"/>
      <stop offset=".32" stop-color="#fcfcfc"/>
      <stop offset=".45" stop-color="#f4f4f4"/>
      <stop offset=".55" stop-color="#e6e5e6"/>
      <stop offset=".64" stop-color="#d2d1d2"/>
      <stop offset=".73" stop-color="#b9b7b8"/>
      <stop offset=".81" stop-color="#999798"/>
      <stop offset=".88" stop-color="#737172"/>
      <stop offset=".95" stop-color="#494647"/>
      <stop offset="1" stop-color="#231f20"/>
    </linearGradient>
    <linearGradient id="linear-gradient-2" x1="217.11" x2="235.11" xlink:href="#linear-gradient"/>
    <linearGradient id="linear-gradient-3" x1="217.11" y1="103.82" x2="226.11" y2="103.82" xlink:href="#linear-gradient"/>
    <linearGradient id="linear-gradient-4" x1="226.11" y1="103.82" x2="235.11" y2="103.82" xlink:href="#linear-gradient"/>
    <linearGradient id="linear-gradient-5" x1="334.11" x2="352.11" xlink:href="#linear-gradient"/>
    <linearGradient id="linear-gradient-6" x1="550.11" x2="568.11" xlink:href="#linear-gradient"/>
    <linearGradient id="linear-gradient-7" x1="550.11" y1="103.82" x2="559.11" y2="103.82" xlink:href="#linear-gradient"/>
    <linearGradient id="linear-gradient-8" x1="559.11" y1="103.82" x2="568.11" y2="103.82" xlink:href="#linear-gradient"/>
    <linearGradient id="linear-gradient-9" x1="333" y1="261.32" x2="351" y2="261.32" xlink:href="#linear-gradient"/>
    <linearGradient id="linear-gradient-10" x1="549" y1="261.32" x2="567" y2="261.32" xlink:href="#linear-gradient"/>
    <linearGradient id="linear-gradient-11" x1="549" y1="274.82" x2="558" y2="274.82" xlink:href="#linear-gradient"/>
    <linearGradient id="linear-gradient-12" x1="558" y1="274.82" x2="567" y2="274.82" xlink:href="#linear-gradient"/>
  </defs>
  <g id="Layer_1-2" data-name="Layer 1">
    <line class="cls-8" x1="10.11" y1="81.32" x2="226.11" y2="81.32"/>
    <polygon class="cls-21" points="19.11 99.32 1.11 99.32 10.11 81.32 19.11 99.32"/>
    <polygon class="cls-23" points="235.11 99.32 217.11 99.32 226.11 81.32 235.11 99.32"/>
    <circle class="cls-3" cx="221.61" cy="103.82" r="4.5"/>
    <circle class="cls-19" cx="230.61" cy="103.82" r="4.5"/>
    <g>
      <line class="cls-25" x1="46.11" y1="48.32" x2="46.11" y2="75.67"/>
      <polygon class="cls-43" points="46.11 81.32 42.86 73.36 46.11 75.25 49.36 73.36 46.11 81.32"/>
    </g>
    <g>
      <line class="cls-25" x1="82.11" y1="42.32" x2="82.11" y2="75.67"/>
      <polygon class="cls-43" points="82.11 81.32 78.86 73.36 82.11 75.25 85.36 73.36 82.11 81.32"/>
    </g>
    <g>
      <line class="cls-25" x1="118.11" y1="36.32" x2="118.11" y2="75.67"/>
      <polygon class="cls-43" points="118.11 81.32 114.86 73.36 118.11 75.25 121.36 73.36 118.11 81.32"/>
    </g>
    <g>
      <line class="cls-25" x1="154.11" y1="30.32" x2="154.11" y2="75.67"/>
      <polygon class="cls-43" points="154.11 81.32 150.86 73.36 154.11 75.25 157.36 73.36 154.11 81.32"/>
    </g>
    <g>
      <line class="cls-25" x1="190.11" y1="24.32" x2="190.11" y2="75.67"/>
      <polygon class="cls-43" points="190.11 81.32 186.86 73.36 190.11 75.25 193.36 73.36 190.11 81.32"/>
    </g>
    <g>
      <line class="cls-25" x1="226.11" y1="18.32" x2="226.11" y2="75.67"/>
      <polygon class="cls-43" points="226.11 81.32 222.86 73.36 226.11 75.25 229.36 73.36 226.11 81.32"/>
    </g>
    <line class="cls-25" x1="10.11" y1="54.32" x2="226.11" y2="18.32"/>
    <text class="cls-30" transform="translate(46.11 13.4)"><tspan x="0" y="0">w(x)</tspan></text>
    <line class="cls-8" x1="343.11" y1="81.32" x2="559.11" y2="81.32"/>
    <polygon class="cls-16" points="352.11 99.32 334.11 99.32 343.11 81.32 352.11 99.32"/>
    <polygon class="cls-15" points="568.11 99.32 550.11 99.32 559.11 81.32 568.11 99.32"/>
    <circle class="cls-24" cx="554.61" cy="103.82" r="4.5"/>
    <circle class="cls-12" cx="563.61" cy="103.82" r="4.5"/>
    <text class="cls-32" transform="translate(109.11 135.32)"><tspan x="0" y="0">L</tspan></text>
    <g>
      <line class="cls-18" x1="10.61" y1="117.32" x2="225.61" y2="117.32"/>
      <rect class="cls-36" x="10.11" y="114.07" width="1" height="6.5"/>
      <rect class="cls-36" x="225.11" y="114.07" width="1" height="6.5"/>
    </g>
    <text class="cls-33" transform="translate(0 43.83)"><tspan x="0" y="0">w</tspan></text>
    <text class="cls-33" transform="translate(10.01 48.83) scale(.58)"><tspan x="0" y="0">1</tspan></text>
    <g>
      <line class="cls-25" x1="10.11" y1="54.32" x2="10.11" y2="75.67"/>
      <polygon class="cls-43" points="10.11 81.32 6.86 73.36 10.11 75.25 13.36 73.36 10.11 81.32"/>
    </g>
    <text class="cls-33" transform="translate(221.61 12.47)"><tspan x="0" y="0">w</tspan></text>
    <text class="cls-33" transform="translate(231.61 17.46) scale(.58)"><tspan x="0" y="0">2</tspan></text>
    <line class="cls-8" x1="342" y1="252.32" x2="558" y2="252.32"/>
    <polygon class="cls-17" points="351 270.32 333 270.32 342 252.32 351 270.32"/>
    <polygon class="cls-9" points="567 270.32 549 270.32 558 252.32 567 270.32"/>
    <circle class="cls-11" cx="553.5" cy="274.82" r="4.5"/>
    <circle class="cls-13" cx="562.5" cy="274.82" r="4.5"/>
    <g>
      <line class="cls-6" x1="486" y1="171.32" x2="486" y2="207.85"/>
      <polygon class="cls-26" points="486 216.32 481.12 204.38 486 207.21 490.88 204.38 486 216.32"/>
    </g>
    <g>
      <line class="cls-18" x1="342.5" y1="300.47" x2="485.5" y2="300.47"/>
      <rect class="cls-36" x="342" y="297.22" width="1" height="6.5"/>
      <rect class="cls-36" x="485" y="297.22" width="1" height="6.5"/>
    </g>
    <polygon class="cls-22" points="558 192.26 558 225.32 342 225.32 342 225.32 558 192.26"/>
    <rect class="cls-7" x="342" y="225.32" width="216" height="27"/>
    <g>
      <line class="cls-20" x1="450" y1="198.32" x2="450" y2="234.85"/>
      <polygon class="cls-49" points="450 243.32 445.12 231.38 450 234.21 454.88 231.38 450 243.32"/>
    </g>
    <g>
      <line class="cls-14" x1="423" y1="309.47" x2="418.18" y2="324.32"/>
      <text class="cls-48" transform="translate(401.56 320.85)"><tspan class="cls-1" x="0" y="0">2</tspan><tspan x="22.1" y="0">3</tspan></text>
      <text class="cls-34" transform="translate(409.77 320.85)"><tspan x="0" y="0">L</tspan></text>
    </g>
    <g>
      <line class="cls-18" x1="342.5" y1="288.32" x2="449.5" y2="288.32"/>
      <rect class="cls-36" x="342" y="285.07" width="1" height="6.5"/>
      <rect class="cls-36" x="449" y="285.07" width="1" height="6.5"/>
    </g>
    <g>
      <line class="cls-14" x1="400.22" y1="270.32" x2="395.41" y2="285.17"/>
      <text class="cls-48" transform="translate(401.56 281.7)"><tspan x="0" y="0">2</tspan></text>
      <text class="cls-34" transform="translate(387 281.7)"><tspan x="0" y="0">L</tspan></text>
    </g>
    <g>
      <text class="cls-51" transform="translate(396.3 201.42) scale(1.01 1)"><tspan class="cls-42" x="0" y="0">1</tspan><tspan x="28.68" y="0">1</tspan></text>
      <text class="cls-34" transform="translate(388.53 198.32) scale(1.01 1)"><tspan class="cls-27" x="0" y="0">R</tspan><tspan class="cls-54" x="28.02" y="0">w</tspan><tspan class="cls-55" x="41.28" y="0">L</tspan></text>
      <text class="cls-46" transform="translate(405 198.32) scale(1.01 1)"><tspan x="0" y="0">=</tspan></text>
    </g>
    <g>
      <line class="cls-4" x1="506.86" y1="158.96" x2="515.81" y2="158.96"/>
      <text class="cls-47" transform="translate(517.75 163.8) scale(.75 1)"><tspan x="0" y="0">(</tspan></text>
      <text class="cls-47" transform="translate(567.86 163.8) scale(.75 1)"><tspan x="0" y="0">)</tspan></text>
      <text class="cls-50" transform="translate(485.7 165.83)"><tspan class="cls-44" x="0" y="0">2</tspan><tspan class="cls-52" x="47.86" y="0">2</tspan><tspan x="75.95" y="0">1</tspan></text>
      <text class="cls-39" transform="translate(507.58 153.32)"><tspan x="0" y="0">1</tspan></text>
      <text class="cls-39" transform="translate(507.84 174.34)"><tspan x="0" y="0">2</tspan></text>
      <text class="cls-29" transform="translate(477 162.71)"><tspan class="cls-35" x="0" y="0">R</tspan><tspan class="cls-45" x="47.19" y="0">w</tspan><tspan class="cls-37" x="76.22" y="0">w</tspan><tspan x="97.95" y="0">L</tspan></text>
      <text class="cls-40" transform="translate(495.02 162.71)"><tspan class="cls-53" x="0" y="0">=</tspan><tspan x="47.1" y="0">−</tspan></text>
    </g>
    <g>
      <line class="cls-2" x1="266.17" y1="75.64" x2="297.75" y2="75.64"/>
      <line class="cls-2" x1="266.17" y1="86.99" x2="297.75" y2="86.99"/>
    </g>
    <g>
      <line class="cls-2" x1="265.07" y1="243.32" x2="296.65" y2="243.32"/>
      <line class="cls-2" x1="265.07" y1="254.67" x2="296.65" y2="254.67"/>
    </g>
    <g>
      <line class="cls-10" x1="379.11" y1="52.82" x2="379.11" y2="76.6"/>
      <polygon class="cls-41" points="379.11 82.25 375.86 74.29 379.11 76.18 382.36 74.29 379.11 82.25"/>
    </g>
    <g>
      <line class="cls-10" x1="415.11" y1="52.82" x2="415.11" y2="76.6"/>
      <polygon class="cls-41" points="415.11 82.25 411.86 74.29 415.11 76.18 418.36 74.29 415.11 82.25"/>
    </g>
    <g>
      <line class="cls-10" x1="451.11" y1="52.82" x2="451.11" y2="76.6"/>
      <polygon class="cls-41" points="451.11 82.25 447.86 74.29 451.11 76.18 454.36 74.29 451.11 82.25"/>
    </g>
    <g>
      <line class="cls-10" x1="487.11" y1="53.75" x2="487.11" y2="76.6"/>
      <polygon class="cls-41" points="487.11 82.25 483.86 74.29 487.11 76.18 490.36 74.29 487.11 82.25"/>
    </g>
    <g>
      <line class="cls-10" x1="523.11" y1="53.75" x2="523.11" y2="76.6"/>
      <polygon class="cls-41" points="523.11 82.25 519.86 74.29 523.11 76.18 526.36 74.29 523.11 82.25"/>
    </g>
    <g>
      <line class="cls-10" x1="559.11" y1="52.82" x2="559.11" y2="76.6"/>
      <polygon class="cls-41" points="559.11 82.25 555.86 74.29 559.11 76.18 562.36 74.29 559.11 82.25"/>
    </g>
    <line class="cls-10" x1="343.11" y1="52.82" x2="559.11" y2="52.82"/>
    <text class="cls-28" transform="translate(321.96 48.83)"><tspan x="0" y="0">w</tspan></text>
    <text class="cls-28" transform="translate(331.96 53.82) scale(.58)"><tspan x="0" y="0">1</tspan></text>
    <g>
      <line class="cls-10" x1="343.11" y1="52.82" x2="343.11" y2="76.6"/>
      <polygon class="cls-41" points="343.11 82.25 339.86 74.29 343.11 76.18 346.36 74.29 343.11 82.25"/>
    </g>
    <text class="cls-31" transform="translate(566.09 23.38)"><tspan x="0" y="0">w</tspan></text>
    <text class="cls-31" transform="translate(576.1 28.38) scale(.58)"><tspan x="0" y="0">2</tspan></text>
    <g>
      <line class="cls-5" x1="415.11" y1="42.2" x2="415.11" y2="47.17"/>
      <polygon class="cls-38" points="415.11 52.82 411.86 44.86 415.11 46.75 418.36 44.86 415.11 52.82"/>
    </g>
    <g>
      <line class="cls-5" x1="451.11" y1="38.1" x2="451.11" y2="47.17"/>
      <polygon class="cls-38" points="451.11 52.82 447.86 44.86 451.11 46.75 454.36 44.86 451.11 52.82"/>
    </g>
    <g>
      <line class="cls-5" x1="487.11" y1="33.2" x2="487.11" y2="47.17"/>
      <polygon class="cls-38" points="487.11 52.82 483.86 44.86 487.11 46.75 490.36 44.86 487.11 52.82"/>
    </g>
    <g>
      <line class="cls-5" x1="523.11" y1="28.29" x2="523.11" y2="47.17"/>
      <polygon class="cls-38" points="523.11 52.82 519.86 44.86 523.11 46.75 526.36 44.86 523.11 52.82"/>
    </g>
    <g>
      <line class="cls-5" x1="559.11" y1="23.38" x2="559.11" y2="47.17"/>
      <polygon class="cls-38" points="559.11 52.82 555.86 44.86 559.11 46.75 562.36 44.86 559.11 52.82"/>
    </g>
    <line class="cls-5" x1="343.11" y1="52.82" x2="559.11" y2="23.38"/>
    <text class="cls-31" transform="translate(567 57)"><tspan x="0" y="0">w</tspan></text>
    <text class="cls-31" transform="translate(577 62) scale(.58)"><tspan x="0" y="0">1</tspan></text>
  </g>
</svg>