<?xml version="1.0" encoding="UTF-8"?>
<svg id="Layer_1" data-name="Layer 1" xmlns="http://www.w3.org/2000/svg" viewBox="0 0 386.36 230.11">
  <defs>
    <style>
      .cls-1, .cls-2, .cls-3 {
        stroke-width: 2px;
      }

      .cls-1, .cls-2, .cls-3, .cls-4, .cls-5, .cls-6, .cls-7 {
        fill: none;
        stroke-miterlimit: 10;
      }

      .cls-1, .cls-4, .cls-5, .cls-6 {
        stroke: #231f20;
      }

      .cls-2 {
        stroke: #ec008c;
      }

      .cls-8, .cls-9, .cls-10, .cls-11, .cls-12 {
        font-family: TimesNewRomanPS-ItalicMT, 'Times New Roman';
        font-style: italic;
      }

      .cls-13 {
        fill: #ed1c24;
      }

      .cls-9 {
        font-size: 14px;
      }

      .cls-9, .cls-10, .cls-14, .cls-15, .cls-11, .cls-16, .cls-17 {
        fill: #231f20;
      }

      .cls-10, .cls-14, .cls-15, .cls-11 {
        font-size: 12.31px;
      }

      .cls-3 {
        stroke: #27aae1;
      }

      .cls-15, .cls-18, .cls-16, .cls-17, .cls-19 {
        font-family: TimesNewRomanPSMT, 'Times New Roman';
      }

      .cls-11, .cls-12 {
        letter-spacing: -.02em;
      }

      .cls-18 {
        letter-spacing: 0em;
      }

      .cls-16 {
        font-size: 8px;
      }

      .cls-4 {
        stroke-width: .5px;
      }

      .cls-6 {
        stroke-dasharray: 2;
      }

      .cls-17 {
        font-size: 12px;
      }

      .cls-20 {
        fill: #27aae1;
      }

      .cls-7 {
        stroke: #ed1c24;
      }
    </style>
  </defs>
  <line class="cls-5" x1="45.41" y1="104.41" x2="45.41" y2="223.56"/>
  <line class="cls-5" x1="45.41" y1="163.98" x2="344.82" y2="163.98"/>
  <line class="cls-2" x1="45.41" y1="163.98" x2="110.06" y2="188.94"/>
  <line class="cls-2" x1="110.06" y1="188.94" x2="193.18" y2="196.23"/>
  <text class="cls-16" transform="translate(75.15 196.76)"><tspan x="0" y="0">27.6 kNm</tspan></text>
  <text class="cls-16" transform="translate(163.83 207.02)"><tspan x="0" y="0">33 kNm</tspan></text>
  <text class="cls-16" transform="translate(271.99 198.44)"><tspan x="0" y="0">20.4 kNm</tspan></text>
  <line class="cls-2" x1="267.07" y1="185.09" x2="340.95" y2="163.98"/>
  <text class="cls-9" transform="translate(16.84 225.81)"><tspan x="0" y="0">+M</tspan></text>
  <path class="cls-2" d="M193.18,196.23c5.19.72,10.81,1.18,16.81,1.22,23.98.19,39.37-6.22,57.32-12.44"/>
  <line class="cls-1" x1="45.66" y1="54.26" x2="341.2" y2="54.26"/>
  <g>
    <line class="cls-7" x1="110.31" y1="17.32" x2="110.31" y2="50.73"/>
    <polygon class="cls-13" points="110.31 54.26 108.27 49.28 110.31 50.46 112.34 49.28 110.31 54.26"/>
  </g>
  <g>
    <line class="cls-7" x1="193.43" y1="17.32" x2="193.43" y2="50.73"/>
    <polygon class="cls-13" points="193.43 54.26 191.39 49.28 193.43 50.46 195.46 49.28 193.43 54.26"/>
  </g>
  <g>
    <line class="cls-7" x1="267.31" y1="17.32" x2="267.31" y2="50.73"/>
    <polygon class="cls-13" points="267.31 54.26 265.28 49.28 267.31 50.46 269.34 49.28 267.31 54.26"/>
  </g>
  <g>
    <line class="cls-7" x1="230.37" y1="17.32" x2="230.37" y2="50.73"/>
    <polygon class="cls-13" points="230.37 54.26 228.34 49.28 230.37 50.46 232.4 49.28 230.37 54.26"/>
  </g>
  <line class="cls-7" x1="193.43" y1="17.32" x2="267.31" y2="17.32"/>
  <text class="cls-11" transform="translate(43.52 48.59)"><tspan x="0" y="0">A</tspan></text>
  <text class="cls-10" transform="translate(114.59 49.39)"><tspan x="0" y="0">B</tspan></text>
  <text class="cls-10" transform="translate(179.46 49.84)"><tspan x="0" y="0">C</tspan></text>
  <text class="cls-10" transform="translate(272.61 50.02)"><tspan x="0" y="0">D</tspan></text>
  <text class="cls-10" transform="translate(336.5 48.59)"><tspan x="0" y="0">E</tspan></text>
  <text class="cls-14" transform="translate(88.91 10.91)"><tspan class="cls-12" x="0" y="0">P</tspan><tspan class="cls-8" x="7.3" y="0" xml:space="preserve"> = </tspan><tspan class="cls-18" x="21.77" y="0">12 kN</tspan></text>
  <text class="cls-14" transform="translate(201.25 10.23)"><tspan class="cls-8" x="0" y="0">w = </tspan><tspan class="cls-19" x="22.68" y="0">4 kN/m</tspan></text>
  <line class="cls-4" x1="45.66" y1="91.37" x2="341.2" y2="91.37"/>
  <line class="cls-4" x1="341.2" y1="88.2" x2="341.2" y2="94.66"/>
  <line class="cls-4" x1="193.43" y1="88.14" x2="193.43" y2="94.6"/>
  <line class="cls-4" x1="110.31" y1="88.14" x2="110.31" y2="94.6"/>
  <line class="cls-4" x1="267.31" y1="88.14" x2="267.31" y2="94.6"/>
  <line class="cls-4" x1="45.66" y1="88.14" x2="45.66" y2="94.6"/>
  <text class="cls-15" transform="translate(67 104.43)"><tspan x="0" y="0">2 m</tspan></text>
  <text class="cls-15" transform="translate(141.93 104.43)"><tspan x="0" y="0">3 m</tspan></text>
  <text class="cls-15" transform="translate(221.02 104.56)"><tspan x="0" y="0">3 m</tspan></text>
  <text class="cls-15" transform="translate(298.2 105.25)"><tspan x="0" y="0">2 m</tspan></text>
  <line class="cls-6" x1="110.31" y1="70.38" x2="110.31" y2="223.56"/>
  <g>
    <line class="cls-3" x1="45.66" y1="81.41" x2="45.66" y2="62.56"/>
    <polygon class="cls-20" points="45.66 55.5 49.72 65.45 45.66 63.09 41.59 65.45 45.66 55.5"/>
  </g>
  <g>
    <line class="cls-3" x1="341.2" y1="84.06" x2="341.2" y2="65.21"/>
    <polygon class="cls-20" points="341.2 58.15 345.26 68.1 341.2 65.74 337.13 68.1 341.2 58.15"/>
  </g>
  <text class="cls-17" transform="translate(0 77.18)"><tspan x="0" y="0">13.8 kN</tspan></text>
  <text class="cls-17" transform="translate(347.7 77.18)"><tspan x="0" y="0">10.2 kN</tspan></text>
  <line class="cls-6" x1="193.18" y1="70.38" x2="193.18" y2="223.56"/>
  <line class="cls-6" x1="267.31" y1="68.84" x2="267.31" y2="222.03"/>
</svg>